<svg xmlns="http://www.w3.org/2000/svg" width="1132.603" height="229.838" viewBox="0 0 1132.603 229.838">
  <path id="Path_393" data-name="Path 393" d="M173.978,192.426V135.559H71.076V106.787H171.609V49.92H71.076v-26.4h102.9V-33.35H2.7V192.426Zm263.349,0-75.484-116.1L432.25-33.35h-80.9l-35.88,64.314L278.912-33.35H198.688L269.1,76.661,193.611,192.426h80.562l41.3-69.053,41.3,69.053Zm25.726-92.748c0,55.852,32.5,96.809,108.657,96.809S680.028,155.53,680.028,99.34V-33.35H610.636V97.309c0,21.664-11.17,38.927-38.927,38.927-28.1,0-39.265-17.263-39.265-38.927V-33.35H463.053ZM884.14,192.426V132.851H798.5V-33.35H730.125V192.426Zm34.188-92.748c0,55.852,32.5,96.809,108.657,96.809S1135.3,155.53,1135.3,99.34V-33.35h-69.391V97.309c0,21.664-11.17,38.927-38.927,38.927-28.095,0-39.265-17.263-39.265-38.927V-33.35H918.328Z" transform="translate(-2.7 33.35)" fill="#97aba0"/>
</svg>
