<svg xmlns="http://www.w3.org/2000/svg" width="167.3" height="33.95" viewBox="0 0 167.3 33.95">
  <path id="Path_393" data-name="Path 393" d="M28,0V-8.4H12.8v-4.25H27.65v-8.4H12.8v-3.9H28v-8.4H2.7V0ZM66.9,0,55.75-17.15l10.4-16.2H54.2l-5.3,9.5-5.4-9.5H31.65L42.05-17.1,30.9,0H42.8l6.1-10.2L55,0Zm3.8-13.7C70.7-5.45,75.5.6,86.75.6s16-6.05,16-14.35v-19.6H92.5v19.3c0,3.2-1.65,5.75-5.75,5.75-4.15,0-5.8-2.55-5.8-5.75v-19.3H70.7ZM132.9,0V-8.8H120.25V-33.35h-10.1V0Zm5.05-13.7c0,8.25,4.8,14.3,16.05,14.3s16-6.05,16-14.35v-19.6H159.75v19.3c0,3.2-1.65,5.75-5.75,5.75-4.15,0-5.8-2.55-5.8-5.75v-19.3H137.95Z" transform="translate(-2.7 33.35)" fill="#fff"/>
</svg>
